<svg width="24" height="24" viewBox="0 0 24 24" fill="none" xmlns="http://www.w3.org/2000/svg">
<path fill-rule="evenodd" clip-rule="evenodd" d="M14.25 5.50001C14.2501 4.7407 14.516 4.00538 15.0016 3.42167C15.4873 2.83797 16.162 2.44274 16.9086 2.30457C17.6552 2.1664 18.4267 2.29402 19.089 2.66528C19.7514 3.03654 20.2629 3.628 20.5347 4.337C20.8065 5.046 20.8214 5.82779 20.5769 6.54667C20.3325 7.26555 19.844 7.87615 19.1963 8.27247C18.5487 8.6688 17.7827 8.82584 17.0313 8.71634C16.2799 8.60683 15.5906 8.2377 15.083 7.67301L12.366 9.15501L9.326 10.892C9.75101 11.6401 9.86247 12.526 9.63599 13.356L15.083 16.327C15.6159 15.7349 16.3477 15.3592 17.1394 15.2711C17.9311 15.1831 18.7276 15.3889 19.3776 15.8494C20.0275 16.3099 20.4857 16.9932 20.6651 17.7693C20.8445 18.5454 20.7327 19.3604 20.3507 20.0595C19.9688 20.7585 19.3434 21.293 18.5934 21.5613C17.8433 21.8296 17.0209 21.8131 16.2822 21.515C15.5435 21.2168 14.94 20.6577 14.5864 19.9439C14.2328 19.2301 14.1536 18.4113 14.364 17.643L8.917 14.673C8.50187 15.1347 7.96317 15.4679 7.36464 15.633C6.7661 15.7982 6.13279 15.7884 5.53963 15.6049C4.94647 15.4214 4.41828 15.0718 4.01758 14.5975C3.61688 14.1232 3.36042 13.5441 3.27856 12.9286C3.19669 12.3131 3.29285 11.6871 3.55565 11.1245C3.81845 10.562 4.23689 10.0865 4.76146 9.75432C5.28603 9.42214 5.89478 9.24718 6.51567 9.25014C7.13656 9.25309 7.74361 9.43385 8.265 9.77101L11.635 7.84501L14.364 6.35601C14.2881 6.07701 14.2498 5.78914 14.25 5.50001ZM17.5 3.75001C17.2702 3.75001 17.0426 3.79527 16.8303 3.88322C16.618 3.97116 16.4251 4.10007 16.2626 4.26257C16.1001 4.42507 15.9712 4.61799 15.8832 4.83031C15.7953 5.04263 15.75 5.27019 15.75 5.50001C15.75 5.72982 15.7953 5.95738 15.8832 6.1697C15.9712 6.38202 16.1001 6.57494 16.2626 6.73744C16.4251 6.89995 16.618 7.02885 16.8303 7.1168C17.0426 7.20474 17.2702 7.25001 17.5 7.25001C17.9641 7.25001 18.4092 7.06563 18.7374 6.73744C19.0656 6.40926 19.25 5.96414 19.25 5.50001C19.25 5.03588 19.0656 4.59076 18.7374 4.26257C18.4092 3.93438 17.9641 3.75001 17.5 3.75001ZM6.5 10.75C6.03587 10.75 5.59075 10.9344 5.26256 11.2626C4.93437 11.5908 4.75 12.0359 4.75 12.5C4.75 12.9641 4.93437 13.4093 5.26256 13.7374C5.59075 14.0656 6.03587 14.25 6.5 14.25C6.96412 14.25 7.40924 14.0656 7.73743 13.7374C8.06562 13.4093 8.25 12.9641 8.25 12.5C8.25 12.0359 8.06562 11.5908 7.73743 11.2626C7.40924 10.9344 6.96412 10.75 6.5 10.75ZM15.75 18.5C15.75 18.0359 15.9344 17.5908 16.2626 17.2626C16.5907 16.9344 17.0359 16.75 17.5 16.75C17.9641 16.75 18.4092 16.9344 18.7374 17.2626C19.0656 17.5908 19.25 18.0359 19.25 18.5C19.25 18.9641 19.0656 19.4093 18.7374 19.7374C18.4092 20.0656 17.9641 20.25 17.5 20.25C17.0359 20.25 16.5907 20.0656 16.2626 19.7374C15.9344 19.4093 15.75 18.9641 15.75 18.5Z" fill="#8B7170"/>
</svg>
