<svg width="17" height="17" viewBox="0 0 17 17" fill="none" xmlns="http://www.w3.org/2000/svg">
<path d="M15.3 6.26707V12.325C15.3 12.8886 15.0761 13.4291 14.6776 13.8276C14.279 14.2261 13.7385 14.45 13.175 14.45H3.82495C3.26137 14.45 2.72086 14.2261 2.32235 13.8276C1.92383 13.4291 1.69995 12.8886 1.69995 12.325V6.26707L8.28405 10.1414C8.34946 10.18 8.42401 10.2003 8.49995 10.2003C8.57589 10.2003 8.65044 10.18 8.71585 10.1414L15.3 6.26707ZM13.175 3.40002C13.6978 3.39994 14.2024 3.59264 14.5921 3.94125C14.9818 4.28987 15.2293 4.76992 15.2872 5.28957L8.49995 9.28202L1.7127 5.28957C1.77064 4.76992 2.01813 4.28987 2.40783 3.94125C2.79753 3.59264 3.30208 3.39994 3.82495 3.40002H13.175Z" fill="white"/>
</svg>
