<svg width="13" height="13" viewBox="0 0 13 13" fill="none" xmlns="http://www.w3.org/2000/svg">
<g clip-path="url(#clip0_18_395)">
<path d="M0.277646 6.42224C0.277342 7.51449 0.564967 8.581 1.11188 9.52103L0.225342 12.7328L3.5379 11.871C4.45411 12.3659 5.48066 12.6252 6.52384 12.6253H6.52658C9.97031 12.6253 12.7736 9.84477 12.7751 6.42713C12.7757 4.77104 12.1263 3.21376 10.9465 2.04215C9.76683 0.870637 8.19795 0.225121 6.52633 0.224365C3.08219 0.224365 0.279119 3.00475 0.277697 6.42224" fill="url(#paint0_linear_18_395)"/>
<path d="M0.0543359 6.42019C0.0539805 7.55174 0.351914 8.65639 0.918328 9.63008L0 12.957L3.43134 12.0643C4.37679 12.5758 5.44126 12.8455 6.52443 12.8459H6.52722C10.0945 12.8459 12.9985 9.96531 13 6.42533C13.0006 4.70973 12.3279 3.09647 11.1059 1.88288C9.88371 0.66945 8.25871 0.000705426 6.52722 0C2.95933 0 0.0557578 2.88016 0.0543359 6.42019ZM2.09777 9.46239L1.96965 9.26059C1.43107 8.41085 1.14679 7.4289 1.1472 6.42059C1.14837 3.47821 3.5617 1.08434 6.52925 1.08434C7.96636 1.08495 9.31694 1.64082 10.3328 2.64938C11.3485 3.65804 11.9075 4.99885 11.9071 6.42492C11.9058 9.36731 9.49244 11.7615 6.52722 11.7615H6.52509C5.55958 11.761 4.61266 11.5037 3.78686 11.0175L3.59034 10.9019L1.55411 11.4316L2.09777 9.46234V9.46239Z" fill="url(#paint1_linear_18_395)"/>
<path d="M4.90937 3.7361C4.78821 3.46889 4.66069 3.4635 4.54547 3.45881C4.45112 3.45478 4.34326 3.45508 4.2355 3.45508C4.12764 3.45508 3.9524 3.49534 3.80427 3.65583C3.65599 3.81646 3.23816 4.20465 3.23816 4.99417C3.23816 5.78375 3.81773 6.54677 3.89852 6.65394C3.97941 6.76091 5.01738 8.43297 6.66127 9.07622C8.02749 9.61079 8.30552 9.50447 8.60203 9.47766C8.89859 9.45095 9.55895 9.08958 9.69367 8.71484C9.8285 8.34016 9.8285 8.01899 9.78808 7.95187C9.74766 7.88501 9.6398 7.84485 9.47806 7.76463C9.31627 7.68437 8.52114 7.29613 8.3729 7.24257C8.22462 7.18906 8.11682 7.16235 8.00896 7.32304C7.9011 7.48347 7.59138 7.84485 7.49698 7.95187C7.40268 8.05915 7.30828 8.0725 7.14659 7.99223C6.98475 7.91172 6.46389 7.74246 5.84593 7.19581C5.36513 6.77044 5.04054 6.24515 4.94619 6.08446C4.85183 5.92403 4.93608 5.83706 5.01718 5.75709C5.08985 5.68519 5.17897 5.5697 5.25991 5.47603C5.34055 5.38231 5.36747 5.31544 5.4214 5.20842C5.47538 5.1013 5.44836 5.00758 5.40799 4.92731C5.36747 4.84704 5.05318 4.05339 4.90937 3.7361Z" fill="white"/>
</g>
<defs>
<linearGradient id="paint0_linear_18_395" x1="627.712" y1="1251.07" x2="627.712" y2="0.224365" gradientUnits="userSpaceOnUse">
<stop stop-color="#1FAF38"/>
<stop offset="1" stop-color="#60D669"/>
</linearGradient>
<linearGradient id="paint1_linear_18_395" x1="650" y1="1295.7" x2="650" y2="0" gradientUnits="userSpaceOnUse">
<stop stop-color="#F9F9F9"/>
<stop offset="1" stop-color="white"/>
</linearGradient>
<clipPath id="clip0_18_395">
<rect width="13" height="13" fill="white"/>
</clipPath>
</defs>
</svg>
