<svg width="24" height="24" viewBox="0 0 24 24" fill="none" xmlns="http://www.w3.org/2000/svg">
<path d="M16.4 9H18C18.2833 9 18.521 9.096 18.713 9.288C18.905 9.48 19.0007 9.71733 19 10C19 10.2833 18.904 10.521 18.712 10.713C18.52 10.905 18.2827 11.0007 18 11H14C13.7167 11 13.479 10.904 13.287 10.712C13.095 10.52 12.9993 10.2827 13 10V6C13 5.71667 13.096 5.479 13.288 5.287C13.48 5.095 13.7173 4.99933 14 5C14.2833 5 14.521 5.096 14.713 5.288C14.905 5.48 15.0007 5.71733 15 6V7.6L19.3 3.3C19.4833 3.11667 19.7167 3.025 20 3.025C20.2833 3.025 20.5167 3.11667 20.7 3.3C20.8833 3.48333 20.975 3.71667 20.975 4C20.975 4.28333 20.8833 4.51667 20.7 4.7L16.4 9ZM19.95 21C17.8667 21 15.8083 20.5457 13.775 19.637C11.7417 18.7283 9.89167 17.441 8.225 15.775C6.55833 14.1083 5.271 12.2583 4.363 10.225C3.455 8.19167 3.00067 6.13333 3 4.05C3 3.75 3.1 3.5 3.3 3.3C3.5 3.1 3.75 3 4.05 3H8.1C8.33333 3 8.54167 3.07933 8.725 3.238C8.90833 3.39667 9.01667 3.584 9.05 3.8L9.7 7.3C9.73333 7.56667 9.725 7.79167 9.675 7.975C9.625 8.15833 9.53333 8.31667 9.4 8.45L6.975 10.9C7.30833 11.5167 7.704 12.1123 8.162 12.687C8.62 13.2617 9.12433 13.816 9.675 14.35C10.1917 14.8667 10.7333 15.346 11.3 15.788C11.8667 16.23 12.4667 16.634 13.1 17L15.45 14.65C15.6 14.5 15.796 14.3873 16.038 14.312C16.28 14.2367 16.5173 14.216 16.75 14.25L20.2 14.95C20.4333 15.0167 20.625 15.1377 20.775 15.313C20.925 15.4883 21 15.684 21 15.9V19.95C21 20.25 20.9 20.5 20.7 20.7C20.5 20.9 20.25 21 19.95 21ZM6.025 9L7.675 7.35L7.25 5H5.025C5.10833 5.68333 5.225 6.35833 5.375 7.025C5.525 7.69167 5.74167 8.35 6.025 9ZM14.975 17.95C15.625 18.2333 16.2877 18.4583 16.963 18.625C17.6383 18.7917 18.3173 18.9 19 18.95V16.75L16.65 16.275L14.975 17.95Z" fill="#8B7170"/>
</svg>
