<?xml version="1.0" encoding="UTF-8"?>
<svg xmlns="http://www.w3.org/2000/svg" xmlns:xlink="http://www.w3.org/1999/xlink" width="200px" height="67px" viewBox="0 0 251 67" version="1.1">
<g id="surface1">
<path style=" stroke:none;fill-rule:nonzero;fill:rgb(49.411765%,23.529412%,27.058824%);fill-opacity:1;" d="M 239.988281 8.433594 L 176.4375 8.433594 L 176.4375 57.167969 L 239.988281 57.167969 Z M 239.988281 8.433594 "/>
<path style=" stroke:none;fill-rule:nonzero;fill:rgb(100%,100%,100%);fill-opacity:1;" d="M 188.121094 15.449219 C 188.640625 15.898438 188.863281 16.570312 188.863281 17.316406 C 188.863281 18.0625 188.640625 18.734375 188.121094 19.179688 C 187.597656 19.628906 186.855469 19.851562 185.886719 19.851562 L 183.804688 19.851562 L 183.804688 23.507812 L 183.058594 23.507812 L 183.058594 14.777344 L 185.886719 14.777344 C 186.855469 14.777344 187.597656 15 188.121094 15.449219 Z M 183.804688 19.179688 L 185.8125 19.179688 C 186.484375 19.179688 187.078125 19.03125 187.449219 18.734375 C 187.820312 18.433594 187.972656 17.988281 187.972656 17.390625 C 187.972656 16.792969 187.820312 16.34375 187.449219 16.046875 C 187.078125 15.746094 186.558594 15.597656 185.8125 15.597656 L 183.804688 15.597656 Z M 183.804688 19.179688 "/>
<path style=" stroke:none;fill-rule:nonzero;fill:rgb(100%,100%,100%);fill-opacity:1;" d="M 190.648438 23.136719 C 190.277344 22.6875 190.054688 22.015625 190.054688 21.195312 L 190.054688 17.390625 L 190.800781 17.390625 L 190.800781 21.195312 C 190.800781 21.941406 190.949219 22.390625 191.171875 22.6875 C 191.46875 22.988281 191.839844 23.136719 192.363281 23.136719 C 192.660156 23.136719 192.957031 23.0625 193.253906 22.914062 C 193.550781 22.761719 193.773438 22.539062 193.921875 22.242188 C 194.074219 21.941406 194.148438 21.570312 194.148438 21.121094 L 194.148438 17.390625 L 194.890625 17.390625 L 194.890625 23.734375 L 194.148438 23.734375 L 194.148438 22.914062 C 193.921875 23.210938 193.699219 23.433594 193.328125 23.660156 C 192.957031 23.808594 192.585938 23.957031 192.210938 23.957031 C 191.617188 23.734375 191.023438 23.507812 190.648438 23.136719 Z M 190.648438 23.136719 "/>
<path style=" stroke:none;fill-rule:nonzero;fill:rgb(100%,100%,100%);fill-opacity:1;" d="M 200.027344 17.316406 L 200.027344 18.0625 C 199.878906 18.0625 199.726562 18.0625 199.652344 18.0625 C 199.058594 18.0625 198.539062 18.285156 198.238281 18.660156 C 197.867188 19.03125 197.71875 19.628906 197.71875 20.375 L 197.71875 23.734375 L 196.976562 23.734375 L 196.976562 17.390625 L 197.71875 17.390625 L 197.71875 18.359375 C 197.941406 17.988281 198.164062 17.761719 198.539062 17.613281 C 198.835938 17.464844 199.207031 17.316406 199.652344 17.316406 C 199.800781 17.242188 199.953125 17.316406 200.027344 17.316406 Z M 200.027344 17.316406 "/>
<path style=" stroke:none;fill-rule:nonzero;fill:rgb(100%,100%,100%);fill-opacity:1;" d="M 204.640625 17.6875 C 205.085938 18.0625 205.234375 18.582031 205.234375 19.253906 L 204.492188 19.253906 C 204.492188 18.808594 204.34375 18.433594 204.042969 18.136719 C 203.746094 17.914062 203.375 17.761719 202.851562 17.761719 C 202.40625 17.761719 202.109375 17.835938 201.8125 18.0625 C 201.589844 18.285156 201.441406 18.507812 201.441406 18.808594 C 201.441406 19.03125 201.515625 19.253906 201.589844 19.40625 C 201.664062 19.554688 201.8125 19.628906 202.035156 19.703125 C 202.257812 19.777344 202.554688 19.851562 203.003906 19.925781 C 203.523438 20.078125 203.96875 20.152344 204.265625 20.300781 C 204.566406 20.375 204.863281 20.597656 205.011719 20.824219 C 205.234375 21.046875 205.308594 21.421875 205.308594 21.867188 C 205.308594 22.390625 205.085938 22.839844 204.640625 23.210938 C 204.195312 23.585938 203.671875 23.734375 202.929688 23.734375 C 202.109375 23.734375 201.515625 23.507812 201.066406 23.136719 C 200.621094 22.761719 200.398438 22.167969 200.398438 21.421875 L 201.140625 21.421875 C 201.140625 21.941406 201.289062 22.316406 201.589844 22.613281 C 201.886719 22.914062 202.332031 23.0625 202.851562 23.0625 C 203.300781 23.0625 203.671875 22.988281 203.96875 22.761719 C 204.265625 22.539062 204.417969 22.316406 204.417969 21.941406 C 204.417969 21.644531 204.34375 21.496094 204.265625 21.34375 C 204.117188 21.195312 203.96875 21.046875 203.746094 20.972656 C 203.523438 20.898438 203.152344 20.75 202.628906 20.671875 C 202.183594 20.523438 201.738281 20.449219 201.515625 20.375 C 201.214844 20.300781 200.992188 20.078125 200.84375 19.851562 C 200.621094 19.628906 200.546875 19.332031 200.546875 18.882812 C 200.546875 18.359375 200.769531 17.914062 201.140625 17.613281 C 201.515625 17.316406 202.035156 17.089844 202.703125 17.089844 C 203.671875 17.164062 204.265625 17.316406 204.640625 17.6875 Z M 204.640625 17.6875 "/>
<path style=" stroke:none;fill-rule:nonzero;fill:rgb(100%,100%,100%);fill-opacity:1;" d="M 207.394531 23.136719 C 207.019531 22.6875 206.796875 22.015625 206.796875 21.195312 L 206.796875 17.390625 L 207.542969 17.390625 L 207.542969 21.195312 C 207.542969 21.941406 207.691406 22.390625 207.914062 22.6875 C 208.210938 22.988281 208.582031 23.136719 209.105469 23.136719 C 209.402344 23.136719 209.699219 23.0625 209.996094 22.914062 C 210.296875 22.761719 210.519531 22.539062 210.667969 22.242188 C 210.816406 21.941406 210.890625 21.570312 210.890625 21.121094 L 210.890625 17.390625 L 211.632812 17.390625 L 211.632812 23.734375 L 210.890625 23.734375 L 210.890625 22.914062 C 210.667969 23.210938 210.445312 23.433594 210.070312 23.660156 C 209.699219 23.808594 209.328125 23.957031 208.957031 23.957031 C 208.359375 23.734375 207.765625 23.507812 207.394531 23.136719 Z M 207.394531 23.136719 "/>
<path style=" stroke:none;fill-rule:nonzero;fill:rgb(100%,100%,100%);fill-opacity:1;" d="M 213.71875 14.777344 L 214.460938 14.777344 L 214.460938 15.898438 L 213.71875 15.898438 Z M 213.71875 17.316406 L 214.460938 17.316406 L 214.460938 23.660156 L 213.71875 23.660156 Z M 213.71875 17.316406 "/>
<path style=" stroke:none;fill-rule:nonzero;fill:rgb(100%,100%,100%);fill-opacity:1;" d="M 218.777344 22.914062 L 218.777344 23.585938 C 218.628906 23.660156 218.40625 23.660156 218.183594 23.660156 C 217.664062 23.660156 217.289062 23.507812 216.992188 23.285156 C 216.769531 22.988281 216.621094 22.613281 216.621094 22.015625 L 216.621094 17.988281 L 215.503906 17.988281 L 215.503906 17.316406 L 216.621094 17.316406 L 216.621094 15.820312 L 217.363281 15.820312 L 217.363281 17.316406 L 218.628906 17.316406 L 218.628906 17.988281 L 217.363281 17.988281 L 217.363281 21.941406 C 217.363281 22.316406 217.4375 22.613281 217.585938 22.761719 C 217.738281 22.914062 217.960938 22.988281 218.257812 22.988281 C 218.480469 22.988281 218.628906 22.988281 218.777344 22.914062 Z M 218.777344 22.914062 "/>
<path style=" stroke:none;fill-rule:nonzero;fill:rgb(100%,100%,100%);fill-opacity:1;" d="M 227.1875 18.0625 C 227.707031 18.660156 227.929688 19.480469 227.929688 20.523438 C 227.929688 21.570312 227.707031 22.390625 227.1875 22.988281 C 226.667969 23.585938 225.996094 23.882812 225.105469 23.882812 C 224.210938 23.882812 223.542969 23.585938 223.019531 22.988281 C 222.5 22.390625 222.277344 21.570312 222.277344 20.523438 C 222.277344 19.480469 222.5 18.660156 223.019531 18.0625 C 223.542969 17.464844 224.210938 17.164062 225.105469 17.164062 C 225.996094 17.164062 226.667969 17.464844 227.1875 18.0625 Z M 223.613281 18.507812 C 223.242188 18.957031 223.09375 19.628906 223.09375 20.449219 C 223.09375 21.269531 223.242188 21.941406 223.613281 22.390625 C 223.988281 22.835938 224.507812 23.0625 225.105469 23.0625 C 225.773438 23.0625 226.21875 22.835938 226.59375 22.390625 C 226.964844 21.941406 227.113281 21.269531 227.113281 20.449219 C 227.113281 19.628906 226.964844 18.957031 226.59375 18.507812 C 226.21875 18.0625 225.699219 17.835938 225.105469 17.835938 C 224.507812 17.835938 223.988281 18.0625 223.613281 18.507812 Z M 223.613281 18.507812 "/>
<path style=" stroke:none;fill-rule:nonzero;fill:rgb(100%,100%,100%);fill-opacity:1;" d="M 230.683594 15.671875 C 230.535156 15.820312 230.460938 16.121094 230.460938 16.492188 L 230.460938 17.316406 L 231.726562 17.316406 L 231.726562 17.988281 L 230.460938 17.988281 L 230.460938 23.660156 L 229.71875 23.660156 L 229.71875 17.988281 L 228.601562 17.988281 L 228.601562 17.316406 L 229.71875 17.316406 L 229.71875 16.417969 C 229.71875 15.300781 230.238281 14.703125 231.28125 14.703125 C 231.429688 14.703125 231.652344 14.703125 231.800781 14.777344 L 231.800781 15.449219 C 231.652344 15.449219 231.578125 15.375 231.429688 15.375 C 231.058594 15.375 230.832031 15.449219 230.683594 15.671875 Z M 230.683594 15.671875 "/>
<path style=" stroke:none;fill-rule:nonzero;fill:rgb(100%,100%,100%);fill-opacity:1;" d="M 186.632812 30.152344 C 187.078125 30.523438 187.226562 31.195312 187.226562 31.941406 L 187.226562 34.40625 C 187.226562 35.003906 187.300781 35.523438 187.375 35.972656 L 186.632812 35.972656 C 186.558594 35.675781 186.558594 35.375 186.558594 35.003906 C 186.109375 35.75 185.367188 36.046875 184.324219 36.046875 C 183.730469 36.046875 183.207031 35.898438 182.761719 35.523438 C 182.390625 35.152344 182.167969 34.777344 182.167969 34.257812 C 182.167969 33.734375 182.316406 33.285156 182.6875 32.988281 C 183.058594 32.6875 183.65625 32.464844 184.546875 32.316406 C 185.144531 32.242188 185.8125 32.167969 186.484375 32.09375 L 186.484375 31.792969 C 186.484375 31.195312 186.332031 30.824219 186.035156 30.523438 C 185.738281 30.226562 185.367188 30.152344 184.84375 30.152344 C 184.324219 30.152344 183.953125 30.300781 183.65625 30.523438 C 183.355469 30.75 183.207031 31.121094 183.207031 31.570312 L 182.390625 31.570312 C 182.464844 30.972656 182.6875 30.449219 183.058594 30.078125 C 183.503906 29.703125 184.027344 29.480469 184.769531 29.480469 C 185.664062 29.554688 186.257812 29.777344 186.632812 30.152344 Z M 184.695312 33.0625 C 184.101562 33.136719 183.65625 33.285156 183.433594 33.511719 C 183.207031 33.734375 183.058594 33.957031 183.058594 34.332031 C 183.058594 34.703125 183.207031 35.003906 183.433594 35.226562 C 183.65625 35.449219 184.027344 35.523438 184.472656 35.523438 C 184.769531 35.523438 184.992188 35.449219 185.292969 35.375 C 185.515625 35.300781 185.738281 35.152344 185.960938 34.929688 C 186.183594 34.703125 186.332031 34.480469 186.40625 34.257812 C 186.484375 34.03125 186.558594 33.734375 186.558594 33.285156 L 186.558594 32.839844 C 185.960938 32.914062 185.367188 32.988281 184.695312 33.0625 Z M 184.695312 33.0625 "/>
<path style=" stroke:none;fill-rule:nonzero;fill:rgb(100%,100%,100%);fill-opacity:1;" d="M 196.902344 27.839844 C 197.421875 28.210938 197.644531 28.808594 197.644531 29.554688 C 197.644531 30.152344 197.496094 30.601562 197.199219 31.046875 C 196.902344 31.421875 196.453125 31.71875 195.933594 31.792969 C 196.230469 31.867188 196.527344 32.09375 196.675781 32.316406 C 196.824219 32.539062 197.050781 32.914062 197.273438 33.511719 L 198.164062 36.121094 L 197.273438 36.121094 L 196.453125 33.585938 C 196.230469 33.0625 196.082031 32.6875 195.785156 32.464844 C 195.5625 32.242188 195.1875 32.167969 194.667969 32.167969 L 192.882812 32.167969 L 192.882812 36.046875 L 192.0625 36.046875 L 192.0625 27.167969 L 194.59375 27.167969 C 195.636719 27.167969 196.378906 27.390625 196.902344 27.839844 Z M 192.882812 31.421875 L 194.667969 31.421875 C 195.335938 31.421875 195.933594 31.269531 196.230469 30.898438 C 196.601562 30.601562 196.75 30.152344 196.75 29.554688 C 196.75 28.433594 196.007812 27.914062 194.59375 27.914062 L 192.808594 27.914062 L 192.808594 31.421875 Z M 192.882812 31.421875 "/>
<path style=" stroke:none;fill-rule:nonzero;fill:rgb(100%,100%,100%);fill-opacity:1;" d="M 203.300781 30.152344 C 203.746094 30.523438 203.894531 31.195312 203.894531 31.941406 L 203.894531 34.40625 C 203.894531 35.003906 203.96875 35.523438 204.042969 35.972656 L 203.300781 35.972656 C 203.226562 35.675781 203.226562 35.375 203.226562 35.003906 C 202.78125 35.75 202.035156 36.046875 200.992188 36.046875 C 200.398438 36.046875 199.878906 35.898438 199.429688 35.523438 C 198.984375 35.152344 198.835938 34.777344 198.835938 34.257812 C 198.835938 33.734375 198.984375 33.285156 199.355469 32.988281 C 199.730469 32.6875 200.324219 32.464844 201.214844 32.316406 C 201.8125 32.242188 202.480469 32.167969 203.152344 32.09375 L 203.152344 31.792969 C 203.152344 31.195312 203.003906 30.824219 202.703125 30.523438 C 202.40625 30.226562 202.035156 30.152344 201.515625 30.152344 C 200.992188 30.152344 200.621094 30.300781 200.324219 30.523438 C 200.027344 30.75 199.878906 31.121094 199.878906 31.570312 L 199.058594 31.570312 C 199.132812 30.972656 199.355469 30.449219 199.730469 30.078125 C 200.175781 29.703125 200.695312 29.480469 201.441406 29.480469 C 202.332031 29.554688 202.851562 29.777344 203.300781 30.152344 Z M 201.367188 33.0625 C 200.769531 33.136719 200.324219 33.285156 200.101562 33.511719 C 199.878906 33.734375 199.730469 33.957031 199.730469 34.332031 C 199.730469 34.703125 199.878906 35.003906 200.101562 35.226562 C 200.324219 35.449219 200.695312 35.523438 201.140625 35.523438 C 201.441406 35.523438 201.664062 35.449219 201.960938 35.375 C 202.183594 35.300781 202.40625 35.152344 202.628906 34.929688 C 202.851562 34.703125 203.003906 34.480469 203.078125 34.257812 C 203.152344 34.03125 203.226562 33.734375 203.226562 33.285156 L 203.226562 32.839844 C 202.628906 32.914062 202.035156 32.988281 201.367188 33.0625 Z M 201.367188 33.0625 "/>
<path style=" stroke:none;fill-rule:nonzero;fill:rgb(100%,100%,100%);fill-opacity:1;" d="M 209.921875 36.046875 L 209.921875 35.078125 C 209.773438 35.375 209.476562 35.675781 209.179688 35.898438 C 208.808594 36.121094 208.433594 36.195312 207.988281 36.195312 C 207.46875 36.195312 207.019531 36.046875 206.574219 35.824219 C 206.203125 35.523438 205.90625 35.152344 205.679688 34.703125 C 205.457031 34.183594 205.382812 33.585938 205.382812 32.988281 C 205.382812 32.316406 205.457031 31.71875 205.679688 31.269531 C 205.90625 30.75 206.203125 30.375 206.574219 30.152344 C 206.945312 29.851562 207.46875 29.777344 207.988281 29.777344 C 208.433594 29.777344 208.808594 29.851562 209.179688 30.078125 C 209.550781 30.300781 209.773438 30.523438 209.921875 30.898438 L 209.921875 27.464844 L 210.667969 27.464844 L 210.667969 36.273438 L 209.921875 36.273438 Z M 206.648438 30.972656 C 206.277344 31.421875 206.128906 32.09375 206.128906 32.914062 C 206.128906 33.734375 206.277344 34.40625 206.648438 34.855469 C 207.019531 35.300781 207.46875 35.601562 208.0625 35.601562 C 208.65625 35.601562 209.105469 35.375 209.476562 34.855469 C 209.847656 34.40625 209.996094 33.734375 209.996094 32.914062 C 209.996094 32.09375 209.847656 31.496094 209.476562 30.972656 C 209.105469 30.523438 208.65625 30.226562 208.0625 30.226562 C 207.46875 30.226562 207.019531 30.449219 206.648438 30.972656 Z M 206.648438 30.972656 "/>
<path style=" stroke:none;fill-rule:nonzero;fill:rgb(100%,100%,100%);fill-opacity:1;" d="M 212.601562 27.167969 L 213.347656 27.167969 L 213.347656 28.285156 L 212.601562 28.285156 Z M 212.601562 29.703125 L 213.347656 29.703125 L 213.347656 36.046875 L 212.601562 36.046875 Z M 212.601562 29.703125 "/>
<path style=" stroke:none;fill-rule:nonzero;fill:rgb(100%,100%,100%);fill-opacity:1;" d="M 219.449219 30.226562 C 219.894531 30.675781 220.191406 31.195312 220.191406 31.941406 L 219.375 31.941406 C 219.300781 31.421875 219.148438 31.046875 218.851562 30.75 C 218.554688 30.449219 218.109375 30.300781 217.664062 30.300781 C 217.066406 30.300781 216.546875 30.523438 216.175781 30.972656 C 215.800781 31.421875 215.652344 32.09375 215.652344 32.914062 C 215.652344 33.734375 215.800781 34.40625 216.175781 34.855469 C 216.546875 35.300781 216.992188 35.527344 217.664062 35.527344 C 218.109375 35.527344 218.554688 35.375 218.851562 35.003906 C 219.148438 34.703125 219.375 34.257812 219.375 33.734375 L 220.191406 33.734375 C 220.117188 34.183594 220.042969 34.628906 219.820312 34.929688 C 219.597656 35.300781 219.300781 35.601562 218.925781 35.824219 C 218.554688 36.046875 218.109375 36.121094 217.664062 36.121094 C 216.769531 36.121094 216.097656 35.824219 215.578125 35.226562 C 215.058594 34.628906 214.835938 33.808594 214.835938 32.765625 C 214.835938 31.71875 215.058594 30.898438 215.578125 30.300781 C 216.097656 29.703125 216.769531 29.40625 217.664062 29.40625 C 218.40625 29.554688 218.925781 29.777344 219.449219 30.226562 Z M 219.449219 30.226562 "/>
<path style=" stroke:none;fill-rule:nonzero;fill:rgb(100%,100%,100%);fill-opacity:1;" d="M 225.476562 30.152344 C 225.921875 30.523438 226.070312 31.195312 226.070312 31.941406 L 226.070312 34.40625 C 226.070312 35.003906 226.144531 35.523438 226.21875 35.972656 L 225.476562 35.972656 C 225.402344 35.675781 225.402344 35.375 225.402344 35.003906 C 224.953125 35.75 224.210938 36.046875 223.167969 36.046875 C 222.574219 36.046875 222.050781 35.898438 221.605469 35.523438 C 221.234375 35.152344 221.011719 34.777344 221.011719 34.257812 C 221.011719 33.734375 221.160156 33.285156 221.53125 32.988281 C 221.902344 32.6875 222.5 32.464844 223.390625 32.316406 C 223.988281 32.242188 224.65625 32.167969 225.328125 32.09375 L 225.328125 31.792969 C 225.328125 31.195312 225.179688 30.824219 224.878906 30.523438 C 224.582031 30.226562 224.210938 30.152344 223.691406 30.152344 C 223.167969 30.152344 222.796875 30.300781 222.5 30.523438 C 222.203125 30.75 222.050781 31.121094 222.050781 31.570312 L 221.234375 31.570312 C 221.308594 30.972656 221.53125 30.449219 221.902344 30.078125 C 222.351562 29.703125 222.871094 29.480469 223.617188 29.480469 C 224.433594 29.554688 225.027344 29.777344 225.476562 30.152344 Z M 223.542969 33.0625 C 222.945312 33.136719 222.5 33.285156 222.277344 33.511719 C 222.050781 33.734375 221.902344 33.957031 221.902344 34.332031 C 221.902344 34.703125 222.050781 35.003906 222.277344 35.226562 C 222.5 35.449219 222.871094 35.523438 223.316406 35.523438 C 223.617188 35.523438 223.839844 35.449219 224.136719 35.375 C 224.359375 35.300781 224.582031 35.152344 224.730469 34.929688 C 224.953125 34.703125 225.105469 34.480469 225.179688 34.257812 C 225.253906 34.03125 225.328125 33.734375 225.328125 33.285156 L 225.328125 32.839844 C 224.804688 32.914062 224.210938 32.988281 223.542969 33.0625 Z M 223.542969 33.0625 "/>
<path style=" stroke:none;fill-rule:nonzero;fill:rgb(100%,100%,100%);fill-opacity:1;" d="M 228.675781 27.167969 L 227.929688 27.167969 L 227.929688 35.972656 L 228.675781 35.972656 Z M 228.675781 27.167969 "/>
<path style=" stroke:none;fill-rule:nonzero;fill:rgb(100%,100%,100%);fill-opacity:1;" d="M 187.820312 40.226562 C 188.34375 40.601562 188.566406 41.199219 188.566406 41.945312 C 188.566406 42.539062 188.417969 42.988281 188.121094 43.4375 C 187.820312 43.808594 187.375 44.109375 186.929688 44.183594 C 187.226562 44.257812 187.523438 44.480469 187.671875 44.707031 C 187.820312 44.929688 188.046875 45.300781 188.269531 45.898438 L 189.160156 48.511719 L 188.269531 48.511719 L 187.449219 46.046875 C 187.226562 45.527344 187.078125 45.152344 186.78125 44.929688 C 186.558594 44.707031 186.183594 44.628906 185.664062 44.628906 L 183.804688 44.628906 L 183.804688 48.511719 L 183.058594 48.511719 L 183.058594 39.628906 L 185.589844 39.628906 C 186.632812 39.628906 187.375 39.855469 187.820312 40.226562 Z M 183.804688 43.808594 L 185.589844 43.808594 C 186.257812 43.808594 186.855469 43.660156 187.152344 43.289062 C 187.523438 42.988281 187.671875 42.539062 187.671875 41.945312 C 187.671875 40.824219 186.929688 40.300781 185.515625 40.300781 L 183.804688 40.300781 Z M 183.804688 43.808594 "/>
<path style=" stroke:none;fill-rule:nonzero;fill:rgb(100%,100%,100%);fill-opacity:1;" d="M 191.171875 42.988281 C 191.394531 42.691406 191.617188 42.390625 191.988281 42.242188 C 192.363281 42.09375 192.734375 42.019531 193.105469 42.019531 C 193.847656 42.019531 194.371094 42.242188 194.742188 42.691406 C 195.113281 43.136719 195.335938 43.808594 195.335938 44.628906 L 195.335938 48.4375 L 194.59375 48.4375 L 194.59375 44.628906 C 194.59375 43.882812 194.445312 43.4375 194.222656 43.136719 C 193.921875 42.839844 193.550781 42.691406 193.03125 42.691406 C 192.734375 42.691406 192.433594 42.765625 192.136719 42.914062 C 191.839844 43.0625 191.617188 43.289062 191.46875 43.585938 C 191.320312 43.882812 191.246094 44.257812 191.246094 44.707031 L 191.246094 48.4375 L 190.5 48.4375 L 190.5 39.628906 L 191.246094 39.628906 Z M 191.171875 42.988281 "/>
<path style=" stroke:none;fill-rule:nonzero;fill:rgb(100%,100%,100%);fill-opacity:1;" d="M 201.066406 42.617188 C 201.515625 42.988281 201.664062 43.660156 201.664062 44.40625 L 201.664062 46.871094 C 201.664062 47.46875 201.738281 47.988281 201.8125 48.4375 L 201.066406 48.4375 C 200.992188 48.136719 200.992188 47.839844 200.992188 47.464844 C 200.546875 48.214844 199.800781 48.511719 198.761719 48.511719 C 198.164062 48.511719 197.644531 48.363281 197.199219 47.988281 C 196.824219 47.617188 196.601562 47.242188 196.601562 46.71875 C 196.601562 46.199219 196.75 45.75 197.125 45.453125 C 197.496094 45.152344 198.089844 44.929688 198.984375 44.78125 C 199.578125 44.707031 200.25 44.628906 200.917969 44.554688 L 200.917969 44.257812 C 200.917969 43.660156 200.769531 43.289062 200.472656 42.988281 C 200.175781 42.691406 199.800781 42.617188 199.28125 42.617188 C 198.761719 42.617188 198.386719 42.765625 198.089844 42.988281 C 197.792969 43.210938 197.644531 43.585938 197.644531 44.035156 L 196.824219 44.035156 C 196.902344 43.4375 197.125 42.914062 197.496094 42.542969 C 197.941406 42.167969 198.464844 41.945312 199.207031 41.945312 C 200.027344 42.019531 200.621094 42.167969 201.066406 42.617188 Z M 199.132812 45.453125 C 198.539062 45.527344 198.089844 45.675781 197.867188 45.898438 C 197.644531 46.125 197.496094 46.347656 197.496094 46.71875 C 197.496094 47.09375 197.644531 47.390625 197.867188 47.617188 C 198.089844 47.839844 198.464844 47.914062 198.910156 47.914062 C 199.207031 47.914062 199.429688 47.839844 199.730469 47.765625 C 199.953125 47.691406 200.175781 47.542969 200.324219 47.316406 C 200.546875 47.09375 200.695312 46.871094 200.769531 46.644531 C 200.84375 46.421875 200.917969 46.125 200.917969 45.675781 L 200.917969 45.226562 C 200.398438 45.300781 199.800781 45.378906 199.132812 45.453125 Z M 199.132812 45.453125 "/>
<path style=" stroke:none;fill-rule:nonzero;fill:rgb(100%,100%,100%);fill-opacity:1;" d="M 207.691406 42.390625 C 208.0625 42.691406 208.359375 43.0625 208.582031 43.511719 C 208.808594 44.035156 208.882812 44.628906 208.882812 45.226562 C 208.882812 45.898438 208.808594 46.496094 208.582031 46.945312 C 208.359375 47.46875 208.0625 47.839844 207.691406 48.0625 C 207.320312 48.363281 206.796875 48.4375 206.277344 48.4375 C 205.832031 48.4375 205.457031 48.363281 205.085938 48.136719 C 204.714844 47.914062 204.492188 47.691406 204.34375 47.316406 L 204.34375 50.75 L 203.597656 50.75 L 203.597656 42.167969 L 204.34375 42.167969 L 204.34375 43.0625 C 204.492188 42.765625 204.789062 42.464844 205.085938 42.242188 C 205.457031 42.019531 205.832031 41.945312 206.277344 41.945312 C 206.796875 42.019531 207.246094 42.167969 207.691406 42.390625 Z M 204.789062 43.363281 C 204.417969 43.882812 204.265625 44.480469 204.265625 45.300781 C 204.265625 46.125 204.417969 46.71875 204.789062 47.242188 C 205.160156 47.691406 205.605469 47.988281 206.203125 47.988281 C 206.796875 47.988281 207.246094 47.765625 207.617188 47.242188 C 207.988281 46.796875 208.136719 46.125 208.136719 45.300781 C 208.136719 44.480469 207.988281 43.808594 207.617188 43.363281 C 207.246094 42.914062 206.796875 42.617188 206.203125 42.617188 C 205.53125 42.617188 205.085938 42.914062 204.789062 43.363281 Z M 204.789062 43.363281 "/>
<path style=" stroke:none;fill-rule:nonzero;fill:rgb(100%,100%,100%);fill-opacity:1;" d="M 213.867188 42.542969 C 214.238281 42.914062 214.460938 43.4375 214.460938 44.109375 L 213.71875 44.109375 C 213.71875 43.660156 213.570312 43.289062 213.273438 42.988281 C 212.972656 42.765625 212.601562 42.617188 212.082031 42.617188 C 211.632812 42.617188 211.335938 42.691406 211.039062 42.914062 C 210.816406 43.136719 210.667969 43.363281 210.667969 43.660156 C 210.667969 43.882812 210.742188 44.109375 210.816406 44.257812 C 210.890625 44.40625 211.039062 44.480469 211.261719 44.554688 C 211.484375 44.628906 211.78125 44.707031 212.230469 44.78125 C 212.75 44.929688 213.195312 45.003906 213.496094 45.152344 C 213.792969 45.300781 214.089844 45.453125 214.238281 45.675781 C 214.460938 45.898438 214.535156 46.273438 214.535156 46.71875 C 214.535156 47.242188 214.3125 47.691406 213.867188 48.0625 C 213.421875 48.4375 212.898438 48.585938 212.15625 48.585938 C 211.335938 48.585938 210.742188 48.363281 210.296875 47.988281 C 209.847656 47.617188 209.625 47.019531 209.625 46.273438 L 210.367188 46.273438 C 210.367188 46.796875 210.519531 47.167969 210.816406 47.46875 C 211.113281 47.765625 211.558594 47.914062 212.082031 47.914062 C 212.527344 47.914062 212.898438 47.839844 213.195312 47.617188 C 213.496094 47.390625 213.644531 47.167969 213.644531 46.796875 C 213.644531 46.496094 213.570312 46.347656 213.496094 46.199219 C 213.347656 46.046875 213.195312 45.898438 212.972656 45.824219 C 212.75 45.75 212.378906 45.675781 211.859375 45.527344 C 211.335938 45.378906 210.964844 45.300781 210.742188 45.226562 C 210.445312 45.152344 210.21875 44.929688 210.070312 44.707031 C 209.847656 44.480469 209.773438 44.183594 209.773438 43.734375 C 209.773438 43.210938 209.996094 42.765625 210.367188 42.464844 C 210.742188 42.167969 211.261719 41.945312 211.933594 41.945312 C 212.898438 42.019531 213.496094 42.167969 213.867188 42.542969 Z M 213.867188 42.542969 "/>
<path style=" stroke:none;fill-rule:nonzero;fill:rgb(100%,100%,100%);fill-opacity:1;" d="M 220.5625 42.914062 C 221.085938 43.511719 221.308594 44.332031 221.308594 45.378906 C 221.308594 46.421875 221.085938 47.242188 220.5625 47.839844 C 220.042969 48.4375 219.375 48.734375 218.480469 48.734375 C 217.585938 48.734375 216.917969 48.4375 216.398438 47.839844 C 215.875 47.242188 215.652344 46.421875 215.652344 45.378906 C 215.652344 44.332031 215.875 43.511719 216.398438 42.914062 C 216.917969 42.316406 217.585938 42.019531 218.480469 42.019531 C 219.375 42.019531 220.042969 42.316406 220.5625 42.914062 Z M 216.992188 43.363281 C 216.621094 43.808594 216.472656 44.480469 216.472656 45.300781 C 216.472656 46.125 216.621094 46.796875 216.992188 47.242188 C 217.363281 47.691406 217.886719 47.914062 218.480469 47.914062 C 219.148438 47.914062 219.597656 47.691406 219.96875 47.242188 C 220.339844 46.796875 220.488281 46.125 220.488281 45.300781 C 220.488281 44.480469 220.339844 43.808594 219.96875 43.363281 C 219.597656 42.914062 219.078125 42.691406 218.480469 42.691406 C 217.886719 42.691406 217.363281 42.914062 216.992188 43.363281 Z M 216.992188 43.363281 "/>
<path style=" stroke:none;fill-rule:nonzero;fill:rgb(100%,100%,100%);fill-opacity:1;" d="M 226.890625 48.4375 L 226.890625 47.46875 C 226.742188 47.765625 226.441406 48.0625 226.144531 48.289062 C 225.773438 48.511719 225.402344 48.585938 224.953125 48.585938 C 224.433594 48.585938 223.988281 48.4375 223.542969 48.214844 C 223.167969 47.914062 222.871094 47.542969 222.648438 47.09375 C 222.425781 46.570312 222.351562 45.972656 222.351562 45.378906 C 222.351562 44.707031 222.425781 44.109375 222.648438 43.660156 C 222.871094 43.136719 223.167969 42.765625 223.542969 42.542969 C 223.914062 42.242188 224.433594 42.167969 224.953125 42.167969 C 225.402344 42.167969 225.773438 42.242188 226.144531 42.464844 C 226.515625 42.691406 226.742188 42.914062 226.890625 43.289062 L 226.890625 39.855469 L 227.632812 39.855469 L 227.632812 48.734375 L 226.890625 48.734375 Z M 223.617188 43.363281 C 223.242188 43.808594 223.09375 44.480469 223.09375 45.300781 C 223.09375 46.125 223.242188 46.796875 223.617188 47.242188 C 223.988281 47.691406 224.433594 47.988281 225.027344 47.988281 C 225.625 47.988281 226.070312 47.765625 226.441406 47.242188 C 226.816406 46.796875 226.964844 46.125 226.964844 45.300781 C 226.964844 44.480469 226.816406 43.882812 226.441406 43.363281 C 226.070312 42.914062 225.625 42.617188 225.027344 42.617188 C 224.433594 42.617188 223.988281 42.914062 223.617188 43.363281 Z M 223.617188 43.363281 "/>
<path style=" stroke:none;fill-rule:nonzero;fill:rgb(100%,100%,100%);fill-opacity:1;" d="M 231.058594 50.003906 C 230.832031 50.304688 230.609375 50.527344 230.3125 50.601562 C 230.015625 50.75 229.71875 50.75 229.269531 50.75 C 229.121094 50.75 228.972656 50.75 228.824219 50.675781 L 228.824219 50.003906 C 228.972656 50.003906 229.121094 50.078125 229.269531 50.078125 C 229.570312 50.078125 229.867188 50.003906 230.015625 49.929688 C 230.238281 49.855469 230.386719 49.707031 230.535156 49.480469 C 230.683594 49.257812 230.832031 48.886719 231.058594 48.4375 L 228.601562 42.09375 L 229.417969 42.09375 L 231.429688 47.390625 L 233.4375 42.09375 L 234.257812 42.09375 L 231.652344 48.734375 C 231.429688 49.332031 231.207031 49.707031 231.058594 50.003906 Z M 231.058594 50.003906 "/>
<path style=" stroke:none;fill-rule:nonzero;fill:rgb(16.862745%,16.470588%,16.078431%);fill-opacity:1;" d="M 161.109375 12.761719 C 160.363281 13.882812 160.289062 15.375 160.957031 16.867188 C 161.480469 17.988281 162.296875 18.808594 163.042969 19.628906 C 163.5625 20.152344 164.007812 20.597656 164.382812 21.195312 C 165.796875 23.210938 166.539062 25.824219 166.539062 28.359375 C 166.539062 33.660156 163.859375 38.210938 159.542969 40.152344 C 158.578125 40.601562 157.460938 40.972656 156.417969 41.199219 C 159.023438 39.183594 160.734375 35.898438 160.734375 32.167969 C 160.734375 26.195312 157.386719 21.570312 152.179688 20.972656 L 152.179688 18.957031 C 152.179688 14.480469 155.378906 10.746094 159.84375 10.746094 C 164.234375 10.746094 167.878906 14.40625 167.878906 18.957031 C 167.878906 20.078125 167.582031 21.34375 167.058594 22.464844 C 166.6875 21.644531 166.242188 20.824219 165.796875 20.078125 C 165.347656 19.40625 164.828125 18.882812 164.234375 18.285156 C 163.488281 17.539062 162.894531 16.867188 162.445312 16.046875 C 162.148438 15.375 162 14.40625 162.445312 13.65625 Z M 169.664062 19.03125 C 169.664062 13.507812 165.273438 9.03125 159.917969 9.03125 C 154.558594 9.03125 150.539062 13.507812 150.539062 18.957031 L 150.539062 22.6875 L 151.359375 22.6875 C 156.046875 22.839844 159.023438 26.867188 159.023438 32.167969 C 159.023438 37.390625 155.15625 41.570312 150.242188 41.570312 L 147.339844 41.570312 L 147.339844 36.347656 C 151.878906 36.046875 155.453125 32.242188 155.453125 27.539062 L 155.453125 26.644531 L 154.558594 26.644531 C 147.789062 26.644531 146.074219 31.941406 145.703125 34.480469 C 142.355469 33.957031 139.824219 31.046875 139.824219 27.539062 L 138.039062 27.539062 C 138.039062 32.019531 141.3125 35.675781 145.480469 36.273438 L 145.480469 41.570312 L 138.707031 41.570312 L 138.707031 43.289062 L 150.019531 43.289062 C 150.167969 43.289062 150.242188 43.289062 150.390625 43.289062 C 150.691406 43.289062 151.878906 43.289062 152.699219 43.289062 L 153.515625 43.289062 C 155.75 43.289062 158.058594 42.691406 160.140625 41.792969 C 165.125 39.554688 168.175781 34.40625 168.175781 28.359375 C 168.175781 27.09375 168.027344 25.972656 167.730469 24.777344 L 167.804688 24.703125 C 168.996094 22.988281 169.589844 20.898438 169.664062 19.03125 Z M 153.664062 28.433594 C 153.21875 31.644531 150.691406 34.183594 147.488281 34.554688 C 147.863281 32.539062 149.050781 28.882812 153.664062 28.433594 Z M 153.664062 28.433594 "/>
<path style=" stroke:none;fill-rule:nonzero;fill:rgb(16.862745%,16.470588%,16.078431%);fill-opacity:1;" d="M 146.074219 14.703125 C 146.300781 13.882812 146.449219 13.582031 146.523438 13.359375 C 146.597656 13.136719 146.746094 12.988281 146.894531 12.988281 C 147.042969 12.988281 147.042969 13.136719 147.117188 13.285156 C 147.191406 13.507812 147.714844 15.671875 147.789062 16.121094 C 147.191406 15.449219 146.671875 15 146.074219 14.703125 Z M 139.75 16.121094 C 139.824219 15.597656 140.269531 13.507812 140.347656 13.285156 C 140.421875 13.136719 140.496094 12.988281 140.570312 12.988281 C 140.71875 12.988281 140.867188 13.136719 140.941406 13.359375 C 141.015625 13.507812 141.164062 13.882812 141.386719 14.703125 C 140.792969 15 140.269531 15.449219 139.75 16.121094 Z M 148.828125 14.925781 C 148.679688 14.105469 148.53125 13.210938 148.085938 12.464844 C 147.863281 12.089844 147.636719 11.792969 147.339844 11.644531 C 147.191406 11.566406 147.042969 11.492188 146.820312 11.492188 C 146.597656 11.492188 146.449219 11.566406 146.226562 11.644531 C 145.703125 11.867188 145.332031 12.390625 145.109375 13.136719 C 145.109375 13.136719 145.109375 13.210938 145.035156 13.359375 C 144.960938 13.582031 144.886719 13.957031 144.8125 14.105469 C 144.4375 14.03125 144.066406 13.957031 143.695312 13.957031 C 143.324219 13.957031 142.949219 14.03125 142.578125 14.105469 C 142.503906 13.957031 142.429688 13.582031 142.355469 13.359375 C 142.355469 13.285156 142.28125 13.136719 142.28125 13.136719 C 142.058594 12.316406 141.683594 11.867188 141.164062 11.644531 C 140.941406 11.566406 140.792969 11.492188 140.570312 11.492188 C 140.421875 11.492188 140.195312 11.492188 140.046875 11.644531 C 139.75 11.792969 139.453125 12.089844 139.304688 12.464844 C 138.933594 13.210938 138.707031 14.105469 138.558594 14.925781 C 138.261719 16.71875 138.113281 18.433594 138.113281 20.078125 C 138.113281 22.015625 138.484375 23.433594 139.15625 24.628906 C 139.898438 25.898438 141.015625 26.792969 142.28125 27.242188 C 142.429688 27.242188 142.578125 27.316406 142.726562 27.316406 L 142.726562 25.75 C 142.28125 25.675781 141.835938 25.449219 141.386719 25.078125 C 140.71875 24.480469 140.121094 23.585938 139.898438 22.539062 C 139.75 21.941406 139.675781 21.34375 139.675781 20.671875 C 139.824219 20.75 139.898438 20.75 140.046875 20.75 C 140.792969 20.75 141.3125 20.152344 141.3125 19.480469 C 141.3125 18.808594 140.792969 18.210938 140.121094 18.210938 C 140.570312 17.015625 141.460938 16.195312 142.503906 15.824219 C 142.875 15.671875 143.25 15.597656 143.695312 15.597656 C 144.066406 15.597656 144.511719 15.671875 144.886719 15.824219 C 145.925781 16.195312 146.820312 17.015625 147.265625 18.210938 C 146.597656 18.285156 146.074219 18.808594 146.074219 19.480469 C 146.074219 20.226562 146.671875 20.75 147.339844 20.75 C 147.488281 20.75 147.5625 20.75 147.714844 20.671875 C 147.714844 21.34375 147.636719 21.941406 147.488281 22.539062 C 147.265625 23.585938 146.671875 24.480469 146 25.078125 C 145.554688 25.449219 145.109375 25.675781 144.660156 25.75 L 144.660156 27.316406 C 144.8125 27.316406 144.960938 27.242188 145.109375 27.242188 C 146.375 26.867188 147.488281 25.898438 148.234375 24.628906 C 148.902344 23.433594 149.199219 22.015625 149.277344 20.078125 C 149.351562 18.433594 149.199219 16.71875 148.828125 14.925781 Z M 148.828125 14.925781 "/>
<path style=" stroke:none;fill-rule:nonzero;fill:rgb(16.862745%,16.470588%,16.078431%);fill-opacity:1;" d="M 143.769531 22.242188 C 143.324219 22.242188 143.023438 22.613281 143.023438 23.0625 C 143.023438 23.511719 143.398438 23.882812 143.769531 23.882812 C 144.214844 23.882812 144.511719 23.511719 144.511719 23.0625 C 144.511719 22.613281 144.140625 22.242188 143.769531 22.242188 Z M 143.769531 22.242188 "/>
<path style=" stroke:none;fill-rule:nonzero;fill:rgb(13.72549%,12.156863%,12.54902%);fill-opacity:1;" d="M 21.058594 56.347656 L 21.058594 50.378906 L 13.765625 50.378906 L 13.765625 56.347656 L 13.097656 56.347656 L 13.097656 44.332031 L 13.765625 44.332031 L 13.765625 49.78125 L 21.058594 49.78125 L 21.058594 44.332031 L 21.730469 44.332031 L 21.730469 56.347656 Z M 21.058594 56.347656 "/>
<path style=" stroke:none;fill-rule:nonzero;fill:rgb(13.72549%,12.156863%,12.54902%);fill-opacity:1;" d="M 25.152344 49.183594 C 24.632812 49.855469 24.332031 50.824219 24.332031 52.09375 C 24.332031 53.363281 24.632812 54.257812 25.152344 55.003906 C 25.671875 55.675781 26.492188 56.050781 27.460938 56.050781 C 28.425781 56.050781 29.246094 55.675781 29.765625 55.003906 C 30.285156 54.332031 30.585938 53.363281 30.585938 52.09375 C 30.585938 50.824219 30.285156 49.929688 29.765625 49.183594 C 29.246094 48.511719 28.425781 48.136719 27.460938 48.136719 C 26.417969 48.136719 25.671875 48.4375 25.152344 49.183594 Z M 30.136719 48.734375 C 30.808594 49.558594 31.105469 50.601562 31.105469 52.019531 C 31.105469 53.4375 30.808594 54.484375 30.136719 55.304688 C 29.46875 56.125 28.574219 56.496094 27.382812 56.496094 C 26.195312 56.496094 25.300781 56.125 24.632812 55.304688 C 23.960938 54.484375 23.664062 53.4375 23.664062 52.019531 C 23.664062 50.601562 23.960938 49.558594 24.632812 48.734375 C 25.300781 47.914062 26.195312 47.542969 27.382812 47.542969 C 28.574219 47.542969 29.542969 47.988281 30.136719 48.734375 Z M 30.136719 48.734375 "/>
<path style=" stroke:none;fill-rule:nonzero;fill:rgb(13.72549%,12.156863%,12.54902%);fill-opacity:1;" d="M 43.308594 48.4375 C 43.753906 49.035156 43.980469 49.855469 43.980469 50.976562 L 43.980469 56.347656 L 43.382812 56.347656 L 43.382812 51.050781 C 43.382812 49.109375 42.640625 48.140625 41.226562 48.140625 C 40.480469 48.140625 39.886719 48.4375 39.441406 48.960938 C 38.992188 49.480469 38.769531 50.152344 38.769531 51.050781 L 38.769531 56.421875 L 38.175781 56.421875 L 38.175781 50.75 C 38.175781 49.929688 38.027344 49.332031 37.578125 48.886719 C 37.207031 48.4375 36.6875 48.214844 36.015625 48.214844 C 35.273438 48.214844 34.675781 48.511719 34.230469 49.035156 C 33.785156 49.632812 33.5625 50.378906 33.5625 51.273438 L 33.5625 56.421875 L 32.964844 56.421875 L 32.964844 47.765625 L 33.5625 47.765625 L 33.5625 49.257812 C 33.785156 48.734375 34.15625 48.363281 34.601562 48.0625 C 35.050781 47.765625 35.570312 47.617188 36.089844 47.617188 C 36.6875 47.617188 37.207031 47.765625 37.652344 48.140625 C 38.101562 48.4375 38.398438 48.960938 38.546875 49.558594 C 38.769531 48.960938 39.140625 48.511719 39.589844 48.140625 C 40.035156 47.765625 40.628906 47.617188 41.300781 47.617188 C 42.191406 47.617188 42.863281 47.839844 43.308594 48.4375 Z M 43.308594 48.4375 "/>
<path style=" stroke:none;fill-rule:nonzero;fill:rgb(13.72549%,12.156863%,12.54902%);fill-opacity:1;" d="M 47.105469 49.035156 C 46.582031 49.632812 46.285156 50.527344 46.210938 51.570312 L 52.3125 51.570312 C 52.3125 50.527344 52.015625 49.632812 51.421875 49.035156 C 50.898438 48.4375 50.15625 48.136719 49.261719 48.136719 C 48.371094 48.136719 47.699219 48.4375 47.105469 49.035156 Z M 51.273438 55.378906 C 51.792969 55.003906 52.089844 54.484375 52.164062 53.8125 L 52.835938 53.8125 C 52.6875 54.632812 52.3125 55.230469 51.71875 55.75 C 51.121094 56.273438 50.304688 56.496094 49.410156 56.496094 C 48.667969 56.496094 47.996094 56.347656 47.402344 55.902344 C 46.808594 55.453125 46.433594 55.003906 46.0625 54.257812 C 45.691406 53.511719 45.617188 52.765625 45.617188 51.796875 C 45.617188 50.898438 45.765625 50.152344 46.0625 49.558594 C 46.359375 48.886719 46.808594 48.4375 47.328125 48.0625 C 47.847656 47.691406 48.519531 47.542969 49.261719 47.542969 C 50.15625 47.542969 50.972656 47.839844 51.570312 48.363281 C 52.164062 48.886719 52.609375 49.632812 52.761719 50.601562 C 52.835938 50.976562 52.835938 51.421875 52.835938 52.019531 L 46.136719 52.019531 C 46.136719 53.214844 46.433594 54.183594 47.03125 54.855469 C 47.625 55.527344 48.371094 55.902344 49.335938 55.902344 C 50.15625 55.976562 50.824219 55.75 51.273438 55.378906 Z M 51.273438 55.378906 "/>
<path style=" stroke:none;fill-rule:nonzero;fill:rgb(13.72549%,12.156863%,12.54902%);fill-opacity:1;" d="M 59.382812 48.363281 C 59.902344 48.886719 60.203125 49.632812 60.203125 50.527344 L 59.53125 50.527344 C 59.53125 49.78125 59.308594 49.183594 58.863281 48.734375 C 58.414062 48.289062 57.820312 48.136719 57.074219 48.136719 C 56.40625 48.136719 55.886719 48.289062 55.511719 48.585938 C 55.140625 48.886719 54.917969 49.332031 54.917969 49.855469 C 54.917969 50.226562 54.992188 50.527344 55.140625 50.75 C 55.289062 50.976562 55.511719 51.125 55.886719 51.273438 C 56.183594 51.421875 56.628906 51.496094 57.226562 51.644531 C 57.96875 51.796875 58.5625 51.945312 59.011719 52.167969 C 59.457031 52.316406 59.753906 52.542969 60.050781 52.914062 C 60.277344 53.214844 60.425781 53.660156 60.425781 54.183594 C 60.425781 54.929688 60.125 55.453125 59.605469 55.898438 C 59.011719 56.347656 58.339844 56.570312 57.449219 56.570312 C 56.40625 56.570312 55.585938 56.273438 54.992188 55.75 C 54.398438 55.230469 54.097656 54.40625 54.097656 53.4375 L 54.695312 53.4375 C 54.695312 54.257812 54.917969 54.855469 55.4375 55.304688 C 55.886719 55.75 56.554688 55.976562 57.449219 55.976562 C 58.117188 55.976562 58.714844 55.824219 59.160156 55.453125 C 59.605469 55.152344 59.828125 54.707031 59.828125 54.109375 C 59.828125 53.660156 59.753906 53.363281 59.53125 53.140625 C 59.382812 52.914062 59.085938 52.691406 58.714844 52.542969 C 58.339844 52.394531 57.820312 52.242188 57.074219 52.09375 C 56.40625 51.945312 55.960938 51.796875 55.511719 51.644531 C 55.140625 51.496094 54.84375 51.273438 54.621094 50.976562 C 54.398438 50.675781 54.324219 50.304688 54.324219 49.78125 C 54.324219 49.109375 54.546875 48.511719 55.140625 48.0625 C 55.660156 47.617188 56.332031 47.390625 57.148438 47.390625 C 58.042969 47.542969 58.789062 47.839844 59.382812 48.363281 Z M 59.382812 48.363281 "/>
<path style=" stroke:none;fill-rule:nonzero;fill:rgb(13.72549%,12.156863%,12.54902%);fill-opacity:1;" d="M 15.105469 23.585938 L 15.105469 33.882812 L 13.097656 33.882812 L 13.097656 23.585938 L 9.152344 23.585938 L 9.152344 21.867188 L 19.050781 21.867188 L 19.050781 23.585938 Z M 15.105469 23.585938 "/>
<path style=" stroke:none;fill-rule:nonzero;fill:rgb(13.72549%,12.156863%,12.54902%);fill-opacity:1;" d="M 25.671875 29.628906 C 25.671875 32.390625 24.035156 34.183594 21.429688 34.183594 C 18.828125 34.183594 17.191406 32.390625 17.191406 29.628906 C 17.191406 26.867188 18.828125 25.078125 21.429688 25.078125 C 24.035156 25.078125 25.671875 26.792969 25.671875 29.628906 Z M 19.273438 29.628906 C 19.273438 31.496094 20.09375 32.691406 21.503906 32.691406 C 22.84375 32.691406 23.738281 31.496094 23.738281 29.628906 C 23.738281 27.765625 22.917969 26.644531 21.503906 26.644531 C 20.09375 26.570312 19.273438 27.765625 19.273438 29.628906 Z M 19.273438 29.628906 "/>
<path style=" stroke:none;fill-rule:nonzero;fill:rgb(13.72549%,12.156863%,12.54902%);fill-opacity:1;" d="M 31.476562 32.316406 L 31.476562 33.808594 C 31.179688 33.882812 30.734375 33.957031 30.4375 33.957031 C 28.648438 33.957031 27.832031 33.210938 27.832031 31.347656 L 27.832031 26.792969 L 26.417969 26.792969 L 26.417969 25.300781 L 27.832031 25.300781 L 27.832031 23.136719 L 29.765625 23.136719 L 29.765625 25.300781 L 31.402344 25.300781 L 31.402344 26.792969 L 29.765625 26.792969 L 29.765625 31.121094 C 29.765625 32.09375 30.0625 32.464844 30.957031 32.464844 C 31.105469 32.390625 31.328125 32.390625 31.476562 32.316406 Z M 31.476562 32.316406 "/>
<path style=" stroke:none;fill-rule:nonzero;fill:rgb(13.72549%,12.156863%,12.54902%);fill-opacity:1;" d="M 40.257812 28.433594 L 40.257812 31.644531 C 40.257812 32.691406 40.332031 33.359375 40.480469 33.882812 L 38.695312 33.882812 C 38.621094 33.511719 38.546875 33.0625 38.546875 32.691406 C 37.953125 33.585938 36.984375 34.109375 35.71875 34.109375 C 33.933594 34.109375 32.816406 33.0625 32.816406 31.570312 C 32.816406 30.152344 33.636719 29.257812 36.089844 28.882812 C 36.761719 28.734375 37.800781 28.660156 38.398438 28.660156 L 38.398438 28.285156 C 38.398438 27.015625 37.726562 26.496094 36.6875 26.496094 C 35.644531 26.496094 35.050781 27.09375 34.976562 27.988281 L 33.113281 27.988281 C 33.1875 26.34375 34.378906 25.078125 36.6875 25.078125 C 38.992188 25.078125 40.257812 26.195312 40.257812 28.433594 Z M 38.398438 29.851562 C 37.800781 29.851562 36.984375 30.003906 36.390625 30.078125 C 35.199219 30.300781 34.675781 30.675781 34.675781 31.421875 C 34.675781 32.167969 35.199219 32.691406 36.164062 32.691406 C 36.761719 32.691406 37.355469 32.539062 37.726562 32.09375 C 38.175781 31.644531 38.324219 31.195312 38.324219 30.226562 L 38.324219 29.851562 Z M 38.398438 29.851562 "/>
<path style=" stroke:none;fill-rule:nonzero;fill:rgb(13.72549%,12.156863%,12.54902%);fill-opacity:1;" d="M 42.34375 21.867188 L 44.277344 21.867188 L 44.277344 33.882812 L 42.34375 33.882812 Z M 42.34375 21.867188 "/>
<path style=" stroke:none;fill-rule:nonzero;fill:rgb(13.72549%,12.156863%,12.54902%);fill-opacity:1;" d="M 9.152344 40.003906 L 18.828125 40.003906 L 18.828125 38.210938 L 9.152344 38.210938 Z M 9.152344 40.003906 "/>
<path style=" stroke:none;fill-rule:nonzero;fill:rgb(13.72549%,12.156863%,12.54902%);fill-opacity:1;" d="M 47.625 22.839844 L 47.625 27.242188 L 53.726562 27.242188 L 53.726562 28.210938 L 47.625 28.210938 L 47.625 32.914062 L 54.171875 32.914062 L 54.171875 33.882812 L 46.582031 33.882812 L 46.582031 21.867188 L 54.023438 21.867188 L 54.023438 22.839844 Z M 47.625 22.839844 "/>
<path style=" stroke:none;fill-rule:nonzero;fill:rgb(13.72549%,12.156863%,12.54902%);fill-opacity:1;" d="M 62.804688 28.660156 L 62.804688 33.882812 L 61.765625 33.882812 L 61.765625 28.734375 C 61.765625 26.71875 60.945312 26.046875 59.605469 26.046875 C 58.265625 26.046875 57.074219 27.015625 57.074219 28.808594 L 57.074219 33.882812 L 56.035156 33.882812 L 56.035156 25.300781 L 57.074219 25.300781 L 57.074219 26.496094 C 57.597656 25.675781 58.5625 25.152344 59.753906 25.152344 C 61.765625 25.152344 62.804688 26.269531 62.804688 28.660156 Z M 62.804688 28.660156 "/>
<path style=" stroke:none;fill-rule:nonzero;fill:rgb(13.72549%,12.156863%,12.54902%);fill-opacity:1;" d="M 66.972656 33.882812 L 63.773438 25.300781 L 64.890625 25.300781 L 66.230469 29.03125 C 66.675781 30.375 67.121094 31.570312 67.644531 32.914062 C 68.089844 31.570312 68.535156 30.375 69.058594 29.03125 L 70.394531 25.300781 L 71.511719 25.300781 L 68.3125 33.882812 Z M 66.972656 33.882812 "/>
<path style=" stroke:none;fill-rule:nonzero;fill:rgb(13.72549%,12.156863%,12.54902%);fill-opacity:1;" d="M 73.296875 21.867188 L 74.339844 21.867188 L 74.339844 23.359375 L 73.296875 23.359375 Z M 73.296875 25.300781 L 74.339844 25.300781 L 74.339844 33.882812 L 73.296875 33.882812 Z M 73.296875 25.300781 "/>
<path style=" stroke:none;fill-rule:nonzero;fill:rgb(13.72549%,12.156863%,12.54902%);fill-opacity:1;" d="M 80.8125 25.300781 L 80.8125 26.269531 C 80.664062 26.269531 80.441406 26.269531 80.292969 26.269531 C 78.582031 26.269531 77.613281 27.390625 77.613281 29.40625 L 77.613281 33.957031 L 76.574219 33.957031 L 76.574219 25.300781 L 77.613281 25.300781 L 77.613281 26.644531 C 78.210938 25.75 79.101562 25.226562 80.21875 25.226562 C 80.441406 25.226562 80.664062 25.226562 80.8125 25.300781 Z M 80.8125 25.300781 "/>
<path style=" stroke:none;fill-rule:nonzero;fill:rgb(13.72549%,12.156863%,12.54902%);fill-opacity:1;" d="M 89.445312 29.628906 C 89.445312 32.464844 87.957031 34.109375 85.503906 34.109375 C 83.046875 34.109375 81.558594 32.390625 81.558594 29.628906 C 81.558594 26.792969 83.046875 25.152344 85.503906 25.152344 C 87.957031 25.078125 89.445312 26.792969 89.445312 29.628906 Z M 82.675781 29.628906 C 82.675781 31.867188 83.714844 33.210938 85.503906 33.210938 C 87.289062 33.210938 88.328125 31.867188 88.328125 29.628906 C 88.328125 27.390625 87.289062 26.046875 85.503906 26.046875 C 83.714844 25.972656 82.675781 27.390625 82.675781 29.628906 Z M 82.675781 29.628906 "/>
<path style=" stroke:none;fill-rule:nonzero;fill:rgb(13.72549%,12.156863%,12.54902%);fill-opacity:1;" d="M 98.003906 28.660156 L 98.003906 33.882812 L 96.960938 33.882812 L 96.960938 28.734375 C 96.960938 26.71875 96.144531 26.046875 94.804688 26.046875 C 93.464844 26.046875 92.273438 27.015625 92.273438 28.808594 L 92.273438 33.882812 L 91.230469 33.882812 L 91.230469 25.300781 L 92.273438 25.300781 L 92.273438 26.496094 C 92.792969 25.675781 93.761719 25.152344 94.953125 25.152344 C 96.960938 25.152344 98.003906 26.269531 98.003906 28.660156 Z M 98.003906 28.660156 "/>
<path style=" stroke:none;fill-rule:nonzero;fill:rgb(13.72549%,12.156863%,12.54902%);fill-opacity:1;" d="M 111.398438 28.585938 L 111.398438 33.882812 L 110.355469 33.882812 L 110.355469 28.660156 C 110.355469 26.71875 109.613281 26.046875 108.421875 26.046875 C 107.007812 26.046875 106.117188 27.167969 106.117188 28.808594 L 106.117188 33.882812 L 105.074219 33.882812 L 105.074219 28.359375 C 105.074219 26.867188 104.328125 26.046875 103.136719 26.046875 C 101.800781 26.046875 100.832031 27.167969 100.832031 28.957031 L 100.832031 33.882812 L 99.789062 33.882812 L 99.789062 25.300781 L 100.832031 25.300781 L 100.832031 26.421875 C 101.425781 25.597656 102.246094 25.152344 103.210938 25.152344 C 104.402344 25.152344 105.296875 25.75 105.742188 26.867188 C 106.265625 25.824219 107.230469 25.152344 108.421875 25.152344 C 110.429688 25.152344 111.398438 26.269531 111.398438 28.585938 Z M 111.398438 28.585938 "/>
<path style=" stroke:none;fill-rule:nonzero;fill:rgb(13.72549%,12.156863%,12.54902%);fill-opacity:1;" d="M 119.433594 31.347656 L 120.476562 31.347656 C 120.179688 32.839844 118.988281 34.109375 116.832031 34.109375 C 114.375 34.109375 112.886719 32.316406 112.886719 29.480469 C 112.886719 26.941406 114.300781 25.078125 116.757812 25.078125 C 118.691406 25.078125 120.03125 26.269531 120.402344 28.136719 C 120.476562 28.585938 120.550781 29.183594 120.550781 29.777344 L 114.003906 29.777344 C 114.078125 32.09375 115.269531 33.210938 116.832031 33.210938 C 118.246094 33.210938 119.136719 32.464844 119.433594 31.347656 Z M 114.003906 28.957031 L 119.507812 28.957031 C 119.359375 27.015625 118.320312 25.972656 116.757812 25.972656 C 115.269531 25.972656 114.152344 27.09375 114.003906 28.957031 Z M 114.003906 28.957031 "/>
<path style=" stroke:none;fill-rule:nonzero;fill:rgb(13.72549%,12.156863%,12.54902%);fill-opacity:1;" d="M 129.183594 28.660156 L 129.183594 33.882812 L 128.140625 33.882812 L 128.140625 28.734375 C 128.140625 26.71875 127.324219 26.046875 125.984375 26.046875 C 124.644531 26.046875 123.527344 27.015625 123.527344 28.808594 L 123.527344 33.882812 L 122.484375 33.882812 L 122.484375 25.300781 L 123.527344 25.300781 L 123.527344 26.496094 C 124.050781 25.675781 125.015625 25.152344 126.207031 25.152344 C 128.066406 25.152344 129.183594 26.269531 129.183594 28.660156 Z M 129.183594 28.660156 "/>
<path style=" stroke:none;fill-rule:nonzero;fill:rgb(13.72549%,12.156863%,12.54902%);fill-opacity:1;" d="M 134.691406 32.988281 L 134.691406 33.882812 C 134.46875 33.957031 134.167969 33.957031 133.945312 33.957031 C 132.457031 33.957031 131.863281 33.285156 131.863281 31.644531 L 131.863281 26.195312 L 130.226562 26.195312 L 130.226562 25.300781 L 131.789062 25.300781 L 131.789062 23.285156 L 132.828125 23.285156 L 132.828125 25.300781 L 134.542969 25.300781 L 134.542969 26.195312 L 132.828125 26.195312 L 132.828125 31.644531 C 132.828125 32.691406 133.203125 33.0625 134.09375 33.0625 C 134.316406 33.0625 134.542969 32.988281 134.691406 32.988281 Z M 134.691406 32.988281 "/>
</g>
</svg>
