<svg width="15" height="15" viewBox="0 0 15 15" fill="none" xmlns="http://www.w3.org/2000/svg">
<path d="M12.7899 3.5283V10.5847C12.7899 10.8187 12.6969 11.043 12.5315 11.2085C12.3661 11.3739 12.1417 11.4668 11.9078 11.4668H4.54815L2.77963 13.0165C2.7775 13.0188 2.77509 13.0208 2.77246 13.0225C2.61408 13.1571 2.41302 13.2309 2.20519 13.2309C2.07579 13.2307 1.94801 13.2021 1.83087 13.1471C1.6785 13.0769 1.54958 12.9643 1.45954 12.8227C1.36949 12.6811 1.32214 12.5166 1.32314 12.3489V3.5283C1.32314 3.29436 1.41607 3.07001 1.58148 2.90459C1.7469 2.73917 1.97126 2.64624 2.20519 2.64624H11.9078C12.1417 2.64624 12.3661 2.73917 12.5315 2.90459C12.6969 3.07001 12.7899 3.29436 12.7899 3.5283Z" fill="white"/>
</svg>
